<svg width="36" height="36" viewBox="0 0 36 36" fill="none" xmlns="http://www.w3.org/2000/svg">
<g clip-path="url(#clip0_68_298)">
<path d="M35.9649 10.5841C35.8805 8.67128 35.5712 7.35623 35.1281 6.21673C34.671 5.00717 33.9677 3.92426 33.0463 3.02403C32.1461 2.10979 31.0561 1.39938 29.8605 0.949404C28.7144 0.506294 27.4062 0.196968 25.4934 0.112632C23.5663 0.0211528 22.9545 0 18.0669 0C13.1792 0 12.5674 0.0211528 10.6474 0.105489C8.73463 0.189826 7.41958 0.499426 6.28035 0.942262C5.07052 1.39938 3.98761 2.10264 3.08738 3.02403C2.17314 3.92426 1.46301 5.01432 1.01276 6.20986C0.569648 7.35623 0.260323 8.66414 0.175986 10.577C0.0845073 12.5041 0.0633545 13.1158 0.0633545 18.0035C0.0633545 22.8912 0.0845073 23.503 0.168844 25.4229C0.25318 27.3358 0.56278 28.6508 1.00589 29.7903C1.46301 30.9999 2.17314 32.0828 3.08738 32.983C3.98761 33.8972 5.07767 34.6076 6.27321 35.0576C7.41958 35.5007 8.72749 35.8101 10.6406 35.8944C12.5603 35.979 13.1723 35.9999 18.06 35.9999C22.9477 35.9999 23.5594 35.979 25.4794 35.8944C27.3922 35.8101 28.7073 35.5007 29.8465 35.0576C32.2659 34.1222 34.1787 32.2094 35.1141 29.7903C35.5569 28.6439 35.8665 27.3358 35.9509 25.4229C36.0352 23.503 36.0564 22.8912 36.0564 18.0035C36.0564 13.1158 36.0492 12.5041 35.9649 10.5841ZM32.723 25.2823C32.6455 27.0404 32.3502 27.9898 32.1041 28.6228C31.4992 30.1911 30.2544 31.4358 28.6861 32.0407C28.0532 32.2869 27.0969 32.5822 25.3456 32.6594C23.4468 32.744 22.8773 32.7649 18.074 32.7649C13.2707 32.7649 12.694 32.744 10.8021 32.6594C9.04395 32.5822 8.09455 32.2869 7.46162 32.0407C6.68116 31.7523 5.97075 31.2952 5.39413 30.6974C4.79636 30.1136 4.33924 29.4104 4.05079 28.6299C3.80465 27.997 3.50934 27.0404 3.43214 25.2894C3.34753 23.3906 3.32665 22.8209 3.32665 18.0175C3.32665 13.2142 3.34753 12.6376 3.43214 10.7459C3.50934 8.98775 3.80465 8.03834 4.05079 7.40541C4.33924 6.62468 4.79636 5.91455 5.40128 5.33765C5.98477 4.73988 6.68803 4.28276 7.46876 3.99458C8.10169 3.74844 9.05824 3.45313 10.8093 3.37566C12.7081 3.29132 13.2778 3.27017 18.0809 3.27017C22.8913 3.27017 23.4608 3.29132 25.3528 3.37566C27.1109 3.45313 28.0603 3.74844 28.6933 3.99458C29.4737 4.28276 30.1841 4.73988 30.7607 5.33765C31.3585 5.92141 31.8156 6.62468 32.1041 7.40541C32.3502 8.03834 32.6455 8.99462 32.723 10.7459C32.8073 12.6447 32.8285 13.2142 32.8285 18.0175C32.8285 22.8209 32.8073 23.3835 32.723 25.2823Z" fill="white"/>
<path d="M18.0667 8.75562C12.9612 8.75562 8.81885 12.8977 8.81885 18.0035C8.81885 23.1093 12.9612 27.2514 18.0667 27.2514C23.1725 27.2514 27.3146 23.1093 27.3146 18.0035C27.3146 12.8977 23.1725 8.75562 18.0667 8.75562ZM18.0667 24.0024C14.7545 24.0024 12.0679 21.316 12.0679 18.0035C12.0679 14.691 14.7545 12.0046 18.0667 12.0046C21.3792 12.0046 24.0656 14.691 24.0656 18.0035C24.0656 21.316 21.3792 24.0024 18.0667 24.0024Z" fill="white"/>
<path d="M29.8399 8.38992C29.8399 9.58217 28.8732 10.5489 27.6807 10.5489C26.4884 10.5489 25.5217 9.58217 25.5217 8.38992C25.5217 7.19739 26.4884 6.23096 27.6807 6.23096C28.8732 6.23096 29.8399 7.19739 29.8399 8.38992Z" fill="white"/>
</g>
<defs>
<clipPath id="clip0_68_298">
<rect width="36" height="36" fill="white"/>
</clipPath>
</defs>
</svg>
